<svg version="1.0" xmlns="http://www.w3.org/2000/svg" width="700pt" height="700pt" viewBox="0 0 700 700"><g transform="translate(0.000000,700.000000) scale(0.100000,-0.100000)" fill="#000" stroke="none"><path d="M3269 6775c-2-1-35-5-74-9-368-30-765-141-1125-313-410-197-814-513-1090-853-25-30-47-57-50-60-17-17-106-139-157-215-248-371-414-779-497-1220-31-163-33-181-51-4e2-7-91-7-2973 1-3025 31-217 216-409 434-450 29-6 202-10 384-10 371 0 412 5 525 65 104 56 189 144 236 248 57 123 55 94 52 1077-2 867-3 907-21 960-11 30-30 72-43 92-13 21-23 41-23 45 0 11-98 113-135 141-43 33-141 77-204 92-37 9-148 13-357 13-266 1-303 3-306 16-12 53 2 772 17 849 1 9 6 44 10 77 30 273 162 661 317 938 40 72 154 250 182 284 8 10 43 54 78 98 70 90 282 306 373 381 267 222 556 383 9e2 502 125 44 393 103 520 116 28 3 79 8 115 12 81 8 367 8 438 0 28-3 76-9 105-12 473-51 947-244 1350-551 90-69 357-324 412-393 11-14 38-48 61-75 88-108 2e2-281 283-440 130-246 245-606 276-860 4-27 8-61 10-74 16-98 29-840 15-860-3-4-124-8-270-8-332-1-362-2-430-25-78-26-113-44-167-85-111-83-177-184-208-318-12-50-14-212-12-965 2-896 2-906 23-960 61-159 141-251 276-319 114-58 163-63 564-59 367 4 365 4 471 54 44 20 121 79 161 123 67 72 118 179 137 286 6 36 6 2918 0 3025-3 41-7 93-9 115-3 22-8 63-11 90-6 46-29 186-40 245-75 387-256 817-488 1165-33 50-70 102-81 117-12 14-32 41-46 59-335 445-843 831-1371 1042-133 53-344 122-435 142-11 2-50 11-89 19-84 19-222 43-290 51-27 3-70 8-95 11-48 7-546 15-551 9z"/><path d="M2519 5185c-3-2-27-6-54-10-111-13-295-58-420-102l-80-28-1-162-1-162 49 25c224 114 509 167 758 141 221-23 393-138 451-303 20-55 35-145 34-198l-1-29-334-2c-184-2-355-5-380-9-280-42-425-101-550-226-78-78-120-149-155-260-25-77-30-320-9-410 59-254 247-421 534-476 73-13 325-13 4e2 2 131 24 240 67 340 133 73 48 198 172 245 244 21 31 39 57 41 57 2 0 16-20 33-43 75-109 208-222 340-287 166-83 296-112 526-116 183-3 270 5 429 37 115 23 373 106 384 123 3 6 7 82 8 168l1 157-31-14c-316-139-487-182-725-183-402-1-654 182-739 538-29 122-37 2e2-20 201 7 0 367 1 801 2l788 1 5 20c2 12 2 86-1 166-7 179-6 165-16 225-5 28-12 62-14 76-10 54-58 186-91 249-77 146-195 270-329 345-64 36-176 81-222 90-15 2-50 9-78 14-54 11-341 8-390-3-16-4-49-11-72-17-162-36-355-148-470-272l-40-44-28 41c-47 68-153 153-250 201-78 38-153 63-280 91-33 8-380 16-386 9zm1903-310c198-50 343-208 394-426 8-34 21-173 17-178-2-3-281-5-620-5-611-1-617-1-617 19 0 37 15 110 34 174 61 196 206 346 390 401 125 38 289 44 402 15zm-1191-794c26-1 26-2 23-73-11-276-68-439-203-577-115-118-237-171-406-176-120-4-189 7-270 44-104 48-190 155-209 264-8 43-9 151-2 182 20 94 40 136 91 188 81 84 226 128 470 143 55 4 101 7 102 8 1 1 359-1 404-3z"/></g></svg>