<svg width="480" height="480" viewBox="0 0 480 480" xmlns="http://www.w3.org/2000/svg"
   ><path d="M240 52.5A187.5 187.5.0 0 0 52.5 240v37.5H90A37.5 37.5.0 0 1 127.5 315V427.5A37.5 37.5.0 0 1 90 465H52.5A37.5 37.5.0 0 1 15 427.5V240a225 225 0 1 1 450 0V427.5A37.5 37.5.0 0 1 427.5 465H390a37.5 37.5.0 0 1-37.5-37.5V315A37.5 37.5.0 0 1 390 277.5h37.5V240A187.5 187.5.0 0 0 240 52.5z" style="stroke-width:37.5" /><text style="font-style:normal;font-weight:400;font-size:266.667px;line-height:1.25;font-family:sans-serif;text-align:center;letter-spacing:0;word-spacing:0;text-anchor:middle;fill:#000;fill-opacity:1;stroke:none" x="354.79456" y="273.34915"
     ><tspan x="238.909" y="273.34915" style="text-align:center;text-anchor:middle">æ</tspan></text></svg>
